<svg version="1.1" id="Layer_1" xmlns="http://www.w3.org/2000/svg" xmlns:xlink="http://www.w3.org/1999/xlink" x="0px" y="0px"
	 width="100%" viewBox="0 0 200 200" enable-background="new 0 0 200 200" xml:space="preserve">
<path fill="#FEFEFE" opacity="1.000000" stroke="none" 
	d="
M1.000000,82.000000 
	C1.000000,54.666672 1.000000,27.833345 1.000000,1.000014 
	C67.666649,1.000010 134.333298,1.000010 200.999954,1.000005 
	C200.999969,67.666626 200.999969,134.333252 200.999985,200.999908 
	C134.333389,200.999939 67.666779,200.999939 1.000081,200.999969 
	C1.000000,161.500000 1.000000,122.000000 1.000000,82.000000 
M143.732864,149.593124 
	C143.423431,149.419037 143.113998,149.244949 142.214447,148.878265 
	C141.134537,147.942352 140.054642,147.006439 138.714172,145.576050 
	C138.386780,145.416809 138.059402,145.257553 137.158035,144.979019 
	C136.416382,144.375961 135.674728,143.772903 134.859055,142.410812 
	C133.799850,141.983047 132.740646,141.555283 131.064331,141.029007 
	C130.031784,140.381042 128.999237,139.733078 127.927193,138.480804 
	C127.277061,138.343018 126.626938,138.205246 125.259796,137.988342 
	C122.833420,136.932922 120.407043,135.877487 117.601547,134.402161 
	C117.238976,134.321106 116.876396,134.240067 115.977608,134.197159 
	C115.644867,134.071579 115.312119,133.946014 114.558861,133.393219 
	C114.169807,133.327255 113.780754,133.261276 112.668922,133.212662 
	C110.775871,132.758484 108.882820,132.304291 106.826958,131.556900 
	C106.511963,131.322815 106.244324,131.383240 105.206558,131.775909 
	C102.833412,131.505234 100.460266,131.234543 98.121292,130.967758 
	C98.121292,146.924332 98.121292,162.221756 98.121292,178.756104 
	C106.999329,177.391479 115.272125,176.119888 124.343735,174.934967 
	C125.565201,174.358810 126.786667,173.782639 128.443283,172.972046 
	C128.443283,172.972046 128.937561,172.973465 129.683395,173.002090 
	C130.790802,172.378342 131.898209,171.754578 133.561325,170.717468 
	C135.997879,169.460892 138.434418,168.204315 141.649506,166.976089 
	C145.715515,165.759109 150.330994,165.225891 151.050507,158.952972 
	C151.025238,158.305054 150.999969,157.657120 151.475754,156.629013 
	C150.147568,153.068771 148.633560,149.722290 143.985672,150.009903 
	C143.985672,150.009903 143.958832,150.089264 143.732864,149.593124 
M127.168716,129.907608 
	C144.081009,137.485245 156.748779,149.860474 166.643356,165.319565 
	C192.957230,140.565094 201.062088,94.506401 180.467911,58.308098 
	C158.681732,20.014622 112.574654,2.803857 71.104546,17.633888 
	C29.352571,32.564720 4.548567,75.137367 12.152003,118.817772 
	C18.880421,157.471359 55.578648,192.348480 90.110466,192.393784 
	C90.110466,169.174820 90.110466,145.951721 90.110466,122.586403 
	C100.712425,122.406181 110.575127,123.383354 120.414124,127.588791 
	C120.785545,127.664795 121.156960,127.740807 122.160461,127.823914 
	C123.109985,128.252319 124.059517,128.680725 125.384483,129.546799 
	C125.749313,129.640961 126.114151,129.735123 127.168716,129.907608 
z"/>
<path fill="#23174B" opacity="1.000000" stroke="none" 
	d="
M120.013565,127.171394 
	C110.575127,123.383354 100.712425,122.406181 90.110466,122.586403 
	C90.110466,145.951721 90.110466,169.174820 90.110466,192.393784 
	C55.578648,192.348480 18.880421,157.471359 12.152003,118.817772 
	C4.548567,75.137367 29.352571,32.564720 71.104546,17.633888 
	C112.574654,2.803857 158.681732,20.014622 180.467911,58.308098 
	C201.062088,94.506401 192.957230,140.565094 166.643356,165.319565 
	C156.748779,149.860474 144.081009,137.485245 126.660439,129.617767 
	C125.771118,129.254990 125.390083,129.182053 125.009041,129.109131 
	C124.059517,128.680725 123.109985,128.252319 121.665421,127.579422 
	C120.784767,127.280418 120.399170,127.225906 120.013565,127.171394 
M75.211983,124.809258 
	C64.879105,128.714478 54.546230,132.619705 44.213352,136.524933 
	C43.986164,136.221024 43.758976,135.917114 43.531784,135.613205 
	C54.102753,128.710129 64.673721,121.807053 75.703445,114.604393 
	C75.703445,108.245453 75.703445,100.818710 75.703445,92.936661 
	C66.746231,92.936661 58.018906,92.936661 49.276680,92.936661 
	C49.276680,88.079170 49.276680,83.688606 49.276680,78.873146 
	C58.322987,78.873146 67.073631,78.873146 75.774651,78.873146 
	C75.912552,76.950012 76.019424,75.459618 76.617203,73.491768 
	C76.452187,72.002335 76.287170,70.512894 75.955956,68.269447 
	C76.012329,67.503639 76.068703,66.737823 76.666428,65.349731 
	C76.777924,62.893650 76.718513,60.414955 77.039780,57.986626 
	C77.560371,54.051758 78.330765,50.149940 79.903053,46.054707 
	C83.161018,46.054707 86.418991,46.054707 90.140167,46.054707 
	C90.140167,57.441982 90.140167,68.167976 90.140167,79.250008 
	C99.223022,79.250008 107.816986,79.250008 116.448402,79.250008 
	C116.448402,84.022003 116.448402,88.410538 116.448402,93.131851 
	C107.491707,93.131851 98.881119,93.131851 90.089630,93.131851 
	C90.089630,99.404358 90.089630,105.334717 90.089630,110.707947 
	C97.476463,110.707947 104.658806,110.749084 111.840309,110.689430 
	C115.105995,110.662300 118.437019,109.944756 121.623863,110.379684 
	C141.503326,113.092659 158.714417,121.525177 173.405884,135.161697 
	C174.303818,135.995163 175.333313,136.686874 176.470779,137.576935 
	C183.200592,122.262451 185.256195,106.924515 183.134644,90.795273 
	C177.278061,46.270233 132.362000,13.357969 88.244377,21.551649 
	C42.440746,30.058460 13.330653,69.533173 20.251030,115.849380 
	C24.922876,147.116806 43.418262,168.483414 72.788025,180.265671 
	C73.710449,180.635712 74.998093,180.095337 76.664726,179.360214 
	C76.776993,166.457520 76.771286,153.552170 77.061943,140.653488 
	C77.171989,135.769608 78.007401,130.903961 78.339561,126.018265 
	C78.358635,125.737686 76.815186,125.350868 75.211983,124.809258 
z"/>
<path fill="#366768" opacity="1.000000" stroke="none" 
	d="
M127.966682,139.085114 
	C128.999237,139.733078 130.031784,140.381042 131.553802,141.353790 
	C133.006531,142.175674 133.969803,142.672760 134.933075,143.169846 
	C135.674728,143.772903 136.416382,144.375961 137.568512,145.291809 
	C138.310913,145.759918 138.642822,145.915222 138.974731,146.070526 
	C140.054642,147.006439 141.134537,147.942352 142.610626,149.232224 
	C143.324158,149.753876 143.641495,149.921570 143.958832,150.089264 
	C143.958832,150.089264 143.985672,150.009903 144.091888,150.335510 
	C146.456955,152.777145 148.715836,154.893173 150.974701,157.009201 
	C150.999969,157.657120 151.025238,158.305054 150.622803,159.402481 
	C147.087067,162.217255 143.979019,164.582504 140.870972,166.947754 
	C138.434418,168.204315 135.997879,169.460892 132.954712,170.932785 
	C131.211258,171.756546 130.074417,172.365005 128.937561,172.973465 
	C128.937561,172.973465 128.443283,172.972046 127.881607,173.088928 
	C126.061600,173.753311 124.803261,174.300797 123.544922,174.848297 
	C115.272125,176.119888 106.999329,177.391479 98.121292,178.756104 
	C98.121292,162.221756 98.121292,146.924332 98.121292,130.967758 
	C100.460266,131.234543 102.833412,131.505234 105.848877,131.852783 
	C106.657379,131.903152 106.823578,131.876633 106.989769,131.850113 
	C108.882820,132.304291 110.775871,132.758484 113.228973,133.438980 
	C114.185814,133.717010 114.582596,133.768723 114.979378,133.820435 
	C115.312119,133.946014 115.644867,134.071579 116.422852,134.409744 
	C117.238960,134.688904 117.609810,134.755478 117.980667,134.822067 
	C120.407043,135.877487 122.833420,136.932922 125.782303,138.274368 
	C126.858772,138.735306 127.412727,138.910202 127.966682,139.085114 
z"/>
<path fill="#F5F8F9" opacity="1.000000" stroke="none" 
	d="
M141.260239,166.961914 
	C143.979019,164.582504 147.087067,162.217255 150.519623,159.719772 
	C150.330994,165.225891 145.715515,165.759109 141.260239,166.961914 
z"/>
<path fill="#F5F8F9" opacity="1.000000" stroke="none" 
	d="
M151.225220,156.819107 
	C148.715836,154.893173 146.456955,152.777145 144.057953,150.360077 
	C148.633560,149.722290 150.147568,153.068771 151.225220,156.819107 
z"/>
<path fill="#F5F8F9" opacity="1.000000" stroke="none" 
	d="
M123.944328,174.891632 
	C124.803261,174.300797 126.061600,173.753311 127.664032,173.206146 
	C126.786667,173.782639 125.565201,174.358810 123.944328,174.891632 
z"/>
<path fill="#F5F8F9" opacity="1.000000" stroke="none" 
	d="
M129.310486,172.987778 
	C130.074417,172.365005 131.211258,171.756546 132.676865,171.139465 
	C131.898209,171.754578 130.790802,172.378342 129.310486,172.987778 
z"/>
<path fill="#F5F8F9" opacity="1.000000" stroke="none" 
	d="
M134.896057,142.790329 
	C133.969803,142.672760 133.006531,142.175674 131.862350,141.403046 
	C132.740646,141.555283 133.799850,141.983047 134.896057,142.790329 
z"/>
<path fill="#F5F8F9" opacity="1.000000" stroke="none" 
	d="
M127.946938,138.782959 
	C127.412727,138.910202 126.858772,138.735306 126.140816,138.313934 
	C126.626938,138.205246 127.277061,138.343018 127.946938,138.782959 
z"/>
<path fill="#F5F8F9" opacity="1.000000" stroke="none" 
	d="
M117.791107,134.612122 
	C117.609810,134.755478 117.238960,134.688904 116.690964,134.390686 
	C116.876396,134.240067 117.238976,134.321106 117.791107,134.612122 
z"/>
<path fill="#F5F8F9" opacity="1.000000" stroke="none" 
	d="
M114.769119,133.606827 
	C114.582596,133.768723 114.185814,133.717010 113.590363,133.430298 
	C113.780754,133.261276 114.169807,133.327255 114.769119,133.606827 
z"/>
<path fill="#F5F8F9" opacity="1.000000" stroke="none" 
	d="
M138.844452,145.823288 
	C138.642822,145.915222 138.310913,145.759918 137.855515,145.351456 
	C138.059402,145.257553 138.386780,145.416809 138.844452,145.823288 
z"/>
<path fill="#F5F8F9" opacity="1.000000" stroke="none" 
	d="
M143.845856,149.841187 
	C143.641495,149.921570 143.324158,149.753876 142.905701,149.328522 
	C143.113998,149.244949 143.423431,149.419037 143.845856,149.841187 
z"/>
<path fill="#F5F8F9" opacity="1.000000" stroke="none" 
	d="
M106.908363,131.703506 
	C106.823578,131.876633 106.657379,131.903152 106.257614,131.833923 
	C106.244324,131.383240 106.511963,131.322815 106.908363,131.703506 
z"/>
<path fill="#F5F8F9" opacity="1.000000" stroke="none" 
	d="
M125.196762,129.327972 
	C125.390083,129.182053 125.771118,129.254990 126.315567,129.578613 
	C126.114151,129.735123 125.749313,129.640961 125.196762,129.327972 
z"/>
<path fill="#F5F8F9" opacity="1.000000" stroke="none" 
	d="
M120.213844,127.380096 
	C120.399170,127.225906 120.784767,127.280418 121.349380,127.575874 
	C121.156960,127.740807 120.785545,127.664795 120.213844,127.380096 
z"/>
<path fill="#FDFDFD" opacity="1.000000" stroke="none" 
	d="
M76.125076,65.972015 
	C76.068703,66.737823 76.012329,67.503639 75.960777,69.053833 
	C76.019165,71.215218 76.072731,72.592216 76.126297,73.969223 
	C76.019424,75.459618 75.912552,76.950012 75.774651,78.873146 
	C67.073631,78.873146 58.322987,78.873146 49.276680,78.873146 
	C49.276680,83.688606 49.276680,88.079170 49.276680,92.936661 
	C58.018906,92.936661 66.746231,92.936661 75.703445,92.936661 
	C75.703445,100.818710 75.703445,108.245453 75.703445,114.604393 
	C64.673721,121.807053 54.102753,128.710129 43.531784,135.613205 
	C43.758976,135.917114 43.986164,136.221024 44.213352,136.524933 
	C54.546230,132.619705 64.879105,128.714478 75.580307,125.378250 
	C76.004242,143.957962 76.059860,161.968674 76.115479,179.979401 
	C74.998093,180.095337 73.710449,180.635712 72.788025,180.265671 
	C43.418262,168.483414 24.922876,147.116806 20.251030,115.849380 
	C13.330653,69.533173 42.440746,30.058460 88.244377,21.551649 
	C132.362000,13.357969 177.278061,46.270233 183.134644,90.795273 
	C185.256195,106.924515 183.200592,122.262451 176.470779,137.576935 
	C175.333313,136.686874 174.303818,135.995163 173.405884,135.161697 
	C158.714417,121.525177 141.503326,113.092659 121.623863,110.379684 
	C118.437019,109.944756 115.105995,110.662300 111.840309,110.689430 
	C104.658806,110.749084 97.476463,110.707947 90.089630,110.707947 
	C90.089630,105.334717 90.089630,99.404358 90.089630,93.131851 
	C98.881119,93.131851 107.491707,93.131851 116.448402,93.131851 
	C116.448402,88.410538 116.448402,84.022003 116.448402,79.250008 
	C107.816986,79.250008 99.223022,79.250008 90.140167,79.250008 
	C90.140167,68.167976 90.140167,57.441982 90.140167,46.054707 
	C86.418991,46.054707 83.161018,46.054707 79.015472,46.055984 
	C77.400963,46.969398 76.068504,47.866928 76.046089,48.796059 
	C75.908104,54.517414 76.065758,60.245899 76.125076,65.972015 
M66.922691,135.828217 
	C58.163097,138.713089 50.608570,143.578629 43.348724,149.757645 
	C50.079838,158.366501 57.995770,164.719955 67.759232,169.592422 
	C67.759232,157.917877 67.759232,147.016373 66.922691,135.828217 
z"/>
<path fill="#1E153E" opacity="1.000000" stroke="none" 
	d="
M76.390106,179.669800 
	C76.059860,161.968674 76.004242,143.957962 75.973778,125.480362 
	C76.815186,125.350868 78.358635,125.737686 78.339561,126.018265 
	C78.007401,130.903961 77.171989,135.769608 77.061943,140.653488 
	C76.771286,153.552170 76.776993,166.457520 76.390106,179.669800 
z"/>
<path fill="#1E163D" opacity="1.000000" stroke="none" 
	d="
M76.395752,65.660873 
	C76.065758,60.245899 75.908104,54.517414 76.046089,48.796059 
	C76.068504,47.866928 77.400963,46.969398 78.561790,46.145714 
	C78.330765,50.149940 77.560371,54.051758 77.039780,57.986626 
	C76.718513,60.414955 76.777924,62.893650 76.395752,65.660873 
z"/>
<path fill="#1E163D" opacity="1.000000" stroke="none" 
	d="
M76.371750,73.730499 
	C76.072731,72.592216 76.019165,71.215218 76.043877,69.430832 
	C76.287170,70.512894 76.452187,72.002335 76.371750,73.730499 
z"/>
<path fill="#396868" opacity="1.000000" stroke="none" 
	d="
M67.340958,135.971527 
	C67.759232,147.016373 67.759232,157.917877 67.759232,169.592422 
	C57.995770,164.719955 50.079838,158.366501 43.348724,149.757645 
	C50.608570,143.578629 58.163097,138.713089 67.340958,135.971527 
z"/>
</svg>