<?xml version="1.0" standalone="no"?>
<!DOCTYPE svg PUBLIC "-//W3C//DTD SVG 20010904//EN"
 "http://www.w3.org/TR/2001/REC-SVG-20010904/DTD/svg10.dtd">
<svg version="1.0" xmlns="http://www.w3.org/2000/svg"
 width="200.000000pt" height="200.000000pt" viewBox="0 0 200.000000 200.000000"
 preserveAspectRatio="xMidYMid meet">

<g transform="translate(0.000000,200.000000) scale(0.100000,-0.100000)"
fill="#000000" stroke="none">
<path d="M894 1880 c-368 -46 -670 -315 -770 -685 -26 -97 -26 -330 0 -429 91
-343 345 -591 686 -671 36 -8 68 -15 73 -15 4 0 7 160 7 356 l0 356 78 -7
c162 -14 286 -56 412 -140 85 -56 188 -157 237 -232 20 -29 41 -52 47 -50 22
7 117 143 156 224 108 219 118 492 29 724 -58 151 -196 324 -334 419 -167 115
-416 175 -621 150z m316 -101 c41 -10 116 -39 165 -64 266 -132 435 -390 452
-691 7 -115 -6 -205 -44 -316 l-26 -76 -85 69 c-96 77 -230 148 -342 180 -88
25 -305 37 -387 21 l-53 -9 0 93 0 94 135 0 135 0 0 70 0 70 -135 0 -135 0 0
165 0 165 -70 0 -70 0 0 -165 0 -165 -135 0 -135 0 0 -70 0 -70 135 0 135 0 0
-114 0 -115 -55 -25 c-83 -37 -192 -117 -265 -192 l-65 -67 52 41 c71 54 146
96 227 127 116 44 106 68 106 -255 0 -239 -2 -280 -15 -280 -27 0 -183 87
-247 137 -269 215 -374 578 -262 912 96 289 365 508 675 551 84 11 216 2 309
-21z"/>
<path d="M585 617 c-73 -39 -155 -95 -155 -105 0 -24 203 -192 232 -192 5 0 8
74 8 165 0 125 -3 165 -12 165 -7 0 -40 -15 -73 -33z"/>
<path d="M972 468 l3 -233 75 4 c145 7 321 73 417 156 l38 33 -30 32 c-112
120 -288 209 -463 234 l-42 6 2 -232z"/>
</g>
</svg>
